<?xml version="1.0" encoding="utf-8"?>
<!-- Generator: Adobe Illustrator 18.1.1, SVG Export Plug-In . SVG Version: 6.00 Build 0)  -->
<svg version="1.1" id="Layer_1" xmlns="http://www.w3.org/2000/svg" xmlns:xlink="http://www.w3.org/1999/xlink" x="0px" y="0px"
	 width="600px" height="600px" viewBox="-577 97 600 600" enable-background="new -577 97 600 600" xml:space="preserve">
<path fill="#444444" d="M-91.3,562.7V360.1h-42.2c4.2,13.1,6.3,26.8,6.3,41c0,26.3-6.7,50.5-20,72.7c-13.3,22.2-31.5,39.8-54.4,52.7
	c-22.9,12.9-47.9,19.4-75,19.4c-41.1,0-76.2-14.1-105.3-42.4c-29.2-28.2-43.8-62.4-43.8-102.4c0-14.2,2.1-27.8,6.3-41h-44.1v202.6
	c0,5.4,1.8,9.9,5.5,13.6c3.6,3.7,8.2,5.5,13.6,5.5h334.2c5.2,0,9.7-1.8,13.4-5.5C-93.2,572.6-91.3,568.1-91.3,562.7L-91.3,562.7z
	 M-180.1,396.1c0-25.8-9.4-47.9-28.3-66.1c-18.9-18.2-41.6-27.4-68.3-27.3c-26.5,0-49.1,9.1-68,27.3c-18.9,18.2-28.3,40.3-28.3,66.1
	c0,25.8,9.4,47.9,28.3,66.1s41.5,27.3,68,27.3c26.7,0,49.4-9.1,68.3-27.3C-189.5,443.9-180.1,421.9-180.1,396.1z M-91.3,283.5V232
	c0-5.8-2.1-10.9-6.3-15.2c-4.2-4.3-9.3-6.4-15.3-6.4h-54.4c-6,0-11.1,2.1-15.3,6.4c-4.2,4.3-6.3,9.3-6.3,15.2v51.6
	c0,6,2.1,11.1,6.3,15.3c4.2,4.2,9.3,6.3,15.3,6.3h54.4c6,0,11.1-2.1,15.3-6.3C-93.4,294.7-91.3,289.6-91.3,283.5z M-36.9,218.5v357
	c0,16.9-6,31.4-18.1,43.5s-26.6,18.1-43.5,18.1h-357c-16.9,0-31.4-6-43.5-18.1c-12.1-12.1-18.1-26.6-18.1-43.5v-357
	c0-16.9,6-31.4,18.1-43.5c12.1-12.1,26.6-18.1,43.5-18.1h357c16.9,0,31.4,6,43.5,18.1C-43,187.1-36.9,201.6-36.9,218.5z"/>
</svg>
