<?xml version="1.0" encoding="utf-8"?>
<!-- Generator: Adobe Illustrator 18.1.1, SVG Export Plug-In . SVG Version: 6.00 Build 0)  -->
<svg version="1.1" id="Layer_1" xmlns="http://www.w3.org/2000/svg" xmlns:xlink="http://www.w3.org/1999/xlink" x="0px" y="0px"
	 width="600px" height="600px" viewBox="-577 97 600 600" enable-background="new -577 97 600 600" xml:space="preserve">
<path fill="#444444" d="M-56.7,592.8h-440.6c-27,0-49-21.9-49-49V250.1c0-27,21.9-49,49-49h440.6c27,0,49,21.9,49,49v293.8
	C-7.7,570.9-29.7,592.8-56.7,592.8z M-81.2,543.9l-140.3-122.8l-55.5,49.4l-55.5-49.4l-140.3,122.8
	C-472.9,543.9-81.2,543.9-81.2,543.9z M-497.3,519.4L-359.6,397l-137.7-122.4V519.4L-497.3,519.4z M-472.9,250.1L-277,421.5
	l195.8-171.4C-81.2,250.1-472.9,250.1-472.9,250.1z M-56.7,274.6L-194.4,397l137.7,122.4V274.6L-56.7,274.6z"/>
</svg>
