<?xml version="1.0" encoding="utf-8"?>
<!-- Generator: Adobe Illustrator 18.1.1, SVG Export Plug-In . SVG Version: 6.00 Build 0)  -->
<svg version="1.1" id="Layer_1" xmlns="http://www.w3.org/2000/svg" xmlns:xlink="http://www.w3.org/1999/xlink" x="0px" y="0px"
	 width="600px" height="600px" viewBox="-577 97 600 600" enable-background="new -577 97 600 600" xml:space="preserve">
<desc  version="4.5" iVinci="yes" showGrid="no" gridStep="20" snapToGrid="no" codePlatform="0"></desc>
<g id="Layer1">
	<g id="Shape1">
		
			<desc  type="0" transform="matrix(1,0,0,1,14.0167,14)" shapeID="1" text="" bounding="rect(-13.4,-13.4,26.8,26.8)" font-bold="0" shadowOpacity="160" markerEnd="0" font-underline="0" markerStart="0" strokeStyle="0" blurEnabled="0" shadowOffsetY="2" blurRadius="4" shadowOffsetX="0" shadowEnabled="0" font-pixelSize="20" font-alignment="1" font-familyName="" pers-center="0,0" pers-size="0,0" pers-start="0,0" pers-end="0,0" locked="0" shadowBlur="4" flag="" mesh="" basicInfo-starPoints="5" basicInfo-polygonSides="6" basicInfo-roundedRectRadius="12" basicInfo-basicType="0">
			</desc>
		<path id="shapePath1" fill="#444444" d="M-277,127.9c-148.6,0-269.1,120.5-269.1,269.1c0,148.6,120.5,269.1,269.1,269.1
			C-128.4,666.1-7.9,545.6-7.9,397C-9.9,248.4-130.4,127.9-277,127.9 M-277,629.9c-128.5,0-232.9-104.4-232.9-232.9
			c0-128.5,104.4-232.9,232.9-232.9c128.5,0,232.9,104.4,232.9,232.9C-46.1,525.5-148.5,629.9-277,629.9z"/>
	</g>
	<g id="Shape2">
		
			<desc  type="0" transform="matrix(1,0,0,1,14.0167,14)" shapeID="2" text="" bounding="rect(-5.25,-8.07706,10.5,16.1541)" font-bold="0" shadowOpacity="160" markerEnd="0" font-underline="0" markerStart="0" strokeStyle="0" blurEnabled="0" shadowOffsetY="2" blurRadius="4" shadowOffsetX="0" shadowEnabled="0" font-pixelSize="20" font-alignment="1" font-familyName="" pers-center="0,0" pers-size="0,0" pers-start="0,0" pers-end="0,0" locked="0" shadowBlur="4" flag="" mesh="" basicInfo-starPoints="5" basicInfo-polygonSides="6" basicInfo-roundedRectRadius="12" basicInfo-basicType="0">
			</desc>
		<path id="shapePath2" fill="#444444" d="M-203.7,477.8c-4-6-10-16.1-18.1-16.1c-8,0-18.1,6-26.1,12
			c-30.1,18.1-84.3-116.5-74.3-136.5c4-12,34.1-6,40.2-18.1c2-6,0-14.1-2-20.1c-2-14.1-2-26.1-4-40.2c-2-12-2-16.1-4-18.1
			c-6-6-24.1-6-32.1-6c-6,0-16.1,4-28.1,14.1c-12,10-18.1,18.1-24.1,30.1c-6,16.1-6,34.1-6,54.2c0,14.1,0,28.1,2,40.2
			c6,44.2,28.1,88.4,54.2,122.5c6,10,16.1,18.1,26.1,28.1c26.1,20.1,46.2,40.2,80.3,34.1c16.1-2,26.1-6,30.1-12
			c6-6,16.1-20.1,16.1-24.1c2-2,4-4-2-12C-187.6,497.9-197.7,485.8-203.7,477.8z"/>
	</g>
</g>
</svg>
