<?xml version="1.0" encoding="utf-8"?>
<!-- Generator: Adobe Illustrator 18.1.1, SVG Export Plug-In . SVG Version: 6.00 Build 0)  -->
<!DOCTYPE svg PUBLIC "-//W3C//DTD SVG 1.1//EN" "http://www.w3.org/Graphics/SVG/1.1/DTD/svg11.dtd">
<svg version="1.1" id="Layer_1" xmlns="http://www.w3.org/2000/svg" xmlns:xlink="http://www.w3.org/1999/xlink" x="0px" y="0px"
	 width="600px" height="600px" viewBox="0 0 600 600" enable-background="new 0 0 600 600" xml:space="preserve">
<path fill="#444444" d="M404.2,325.2C418.7,299.1,427,269,427,237c0-100.5-81.5-182-182-182S63,136.5,63,237s81.5,182,182,182
	c33.6,0,65-9.1,92-25l148,148l68-68L404.2,325.2z M293.3,350.3c-14.8,6.3-31.2,9.8-48.3,9.8c-68,0-123.2-55.1-123.2-123.2
	S177,113.8,245,113.8S368.2,169,368.2,237c0,15.5-2.9,30.4-8.1,44C348.1,312.2,323.9,337.3,293.3,350.3z"/>
</svg>
