<?xml version="1.0" encoding="utf-8"?>
<!-- Generator: Adobe Illustrator 18.1.1, SVG Export Plug-In . SVG Version: 6.00 Build 0)  -->
<svg version="1.1" id="Layer_1" xmlns="http://www.w3.org/2000/svg" xmlns:xlink="http://www.w3.org/1999/xlink" x="0px" y="0px"
	 width="600px" height="600px" viewBox="-892 -189 600 600" enable-background="new -892 -189 600 600" xml:space="preserve">
<path fill="#444444" d="M-755.7,289.5h66.9v-66.9h-66.9V289.5z M-673.8,289.5h74.4v-66.9h-74.4V289.5z M-755.7,207.7h66.9v-74.4
	h-66.9V207.7z M-673.8,207.7h74.4v-74.4h-74.4V207.7z M-755.7,118.4h66.9V51.5h-66.9V118.4z M-584.6,289.5h74.4v-66.9h-74.4V289.5z
	 M-673.8,118.4h74.4V51.5h-74.4V118.4z M-495.3,289.5h66.9v-66.9h-66.9V289.5z M-584.6,207.7h74.4v-74.4h-74.4V207.7z M-666.4,6.9
	v-66.9c0-2-0.7-3.8-2.2-5.2c-1.5-1.5-3.2-2.2-5.2-2.2h-14.9c-2,0-3.8,0.7-5.2,2.2c-1.5,1.5-2.2,3.2-2.2,5.2V6.9c0,2,0.7,3.8,2.2,5.2
	c1.5,1.5,3.2,2.2,5.2,2.2h14.9c2,0,3.8-0.7,5.2-2.2C-667.1,10.6-666.4,8.9-666.4,6.9z M-495.3,207.7h66.9v-74.4h-66.9V207.7z
	 M-584.6,118.4h74.4V51.5h-74.4V118.4z M-495.3,118.4h66.9V51.5h-66.9V118.4z M-487.9,6.9v-66.9c0-2-0.7-3.8-2.2-5.2
	c-1.5-1.5-3.2-2.2-5.2-2.2h-14.9c-2,0-3.8,0.7-5.2,2.2c-1.5,1.5-2.2,3.2-2.2,5.2V6.9c0,2,0.7,3.8,2.2,5.2c1.5,1.5,3.2,2.2,5.2,2.2
	h14.9c2,0,3.8-0.7,5.2-2.2C-488.6,10.6-487.8,8.9-487.9,6.9z M-398.6-8v297.5c0,8.1-2.9,15-8.8,20.9s-12.9,8.8-20.9,8.8h-327.3
	c-8.1,0-15-2.9-20.9-8.8c-5.9-5.9-8.8-12.9-8.8-20.9V-8c0-8.1,2.9-15,8.8-20.9c5.9-5.9,12.9-8.8,20.9-8.8h29.8v-22.3
	c0-10.2,3.6-19,10.9-26.3s16-10.9,26.3-10.9h14.9c10.2,0,19,3.6,26.3,10.9s10.9,16,10.9,26.3v22.3h89.3v-22.3
	c0-10.2,3.6-19,10.9-26.3s16-10.9,26.3-10.9h14.9c10.2,0,19,3.6,26.3,10.9c7.3,7.3,10.9,16,10.9,26.3v22.3h29.8
	c8.1,0,15,2.9,20.9,8.8S-398.6-16.1-398.6-8z"/>
</svg>
