<?xml version="1.0" encoding="utf-8"?>
<!-- Generator: Adobe Illustrator 19.1.0, SVG Export Plug-In . SVG Version: 6.00 Build 0)  -->
<svg version="1.1" id="Layer_1" xmlns="http://www.w3.org/2000/svg" xmlns:xlink="http://www.w3.org/1999/xlink" x="0px" y="0px"
	 width="600px" height="600px" viewBox="-5 97 600 600" enable-background="new -5 97 600 600" xml:space="preserve">
<g>
	<path fill="#444444" d="M264.1,157.3c10.3,0,20.6,0,30.9,0c1,0.1,1.9,0.3,2.9,0.3c6.5,0.1,13,0.2,19.6,0.2
		c35.3,0,70.6,0.1,105.8,0.1c6.4,0,12.7,0.9,18.8,2.5c11.8,3.1,22,9,30.2,18.1c5.6,6.2,9.8,13.3,12.9,21.1c4.4,11,8.6,22,13,33
		c8.4,21.3,16.7,42.7,25.1,64c3.1,7.9,6.2,15.9,9.3,23.8c0.5,1.2,1.1,2,2.5,2.2c5.9,1,11.5,3.2,16.6,6.3
		c21.6,13.2,33.6,32.3,33.7,57.9c0.2,50.9,0.1,101.8,0.1,152.7c0,0.9,0,1.7,0,2.8c-1.3,0.1-2.4,0.2-3.4,0.2c-13.1,0-26.3,0-39.4,0
		c-1,0-2,0.1-3.2,0.2c-0.1,1.3-0.2,2.4-0.2,3.5c0,14.7,0,29.5,0,44.2c0,3.7-0.2,7.4-0.8,11.1c-1.6,10.5-6.1,19.5-14.5,26.2
		c-11.8,9.3-25.1,11.8-39.6,8.1c-12.8-3.3-22.1-11.1-27.6-23.3c-2.9-6.4-4-13.2-4-20.2c0-15.5,0-31.1,0-46.6c0-0.9-0.1-1.9-0.1-2.7
		c-0.4-0.2-0.6-0.3-0.7-0.3c-0.3-0.1-0.6-0.1-1-0.1c-103.3,0-206.5,0-309.8,0c-0.5,0-1,0.1-1.4,0.1c-0.1,0-0.2,0-0.2,0.1
		c-0.1,0-0.1,0.1-0.4,0.4c0,0.9-0.1,2-0.1,3.1c0,14.8,0,29.6,0,44.5c0,3.5-0.1,6.9-0.7,10.3c-2.1,13.6-8.9,24.2-21.1,30.9
		c-10.3,5.6-21.4,7-32.7,4c-13.1-3.4-22.7-11.1-28.1-23.7c-2.7-6.3-3.8-12.9-3.8-19.8c0-15.5,0-31.1,0-46.6c0-1-0.1-2-0.2-3.3
		c-15.8,0-31.3,0-46.8-0.1c0-52.5,0-105,0-157.6c0.3-1.2,0.8-2.4,1-3.7c0.3-2.1,0.4-4.2,0.8-6.2c3.9-20,14.8-35.2,32.2-45.7
		c5.1-3.1,10.6-5.4,16.5-6.5c1.7-0.3,2.6-1,3.3-2.6c3.2-8.3,6.5-16.6,9.7-25c12.3-31.4,24.6-62.8,36.8-94.1
		c2.4-6.2,5.5-12.2,9.5-17.6c11.2-15.2,26.5-23.1,45-25.1c4.4-0.5,8.8-0.5,13.3-0.5c29-0.1,58-0.2,87-0.2
		C261.7,157.6,262.9,157.4,264.1,157.3z M484.4,319.3c-0.4-1.2-0.7-2.1-1-3c-11.9-31.4-23.8-62.7-35.8-94.1c-1.1-2.9-2.5-5.8-4-8.5
		c-2.6-4.6-6.3-8.1-11.3-10.2c-3.8-1.6-7.7-2-11.8-2c-82.8,0-165.6,0-248.4,0c-1,0-2.1,0-3.1,0c-8.1,0.3-14.6,3.5-19.4,10.1
		c-2.3,3.2-4,6.8-5.4,10.5c-4.6,12.2-9.2,24.4-13.9,36.6c-7.4,19.3-14.7,38.6-22.1,58c-0.3,0.8-0.5,1.6-0.8,2.6
		C233.1,319.3,358.5,319.3,484.4,319.3z M535,406.9c0.2-4.2-0.6-8.7-2.1-13.1c-6.8-20.4-28.3-32.1-48.6-26.5
		c-22.7,6.3-35.5,30.4-28,53c6.9,20.9,28.6,32.6,49.4,26.6C524.2,441.4,535.3,424.1,535,406.9z M97,365.8c-2.3,0.2-4.6,0.4-6.9,0.7
		c-1.7,0.3-3.3,0.7-4.9,1.2c-25.4,8-36.5,38.4-22.4,61.3c12.5,20.3,39,25.6,58,11.6c14.9-10.9,20.7-30.9,14.1-48.4
		C128.9,376.5,113.6,365.7,97,365.8z"/>
</g>
</svg>
