<?xml version="1.0" encoding="utf-8"?>
<!-- Generator: Adobe Illustrator 19.1.0, SVG Export Plug-In . SVG Version: 6.00 Build 0)  -->
<svg version="1.1" id="Layer_1" xmlns="http://www.w3.org/2000/svg" xmlns:xlink="http://www.w3.org/1999/xlink" x="0px" y="0px"
	 width="600px" height="600px" viewBox="-5 97 600 600" enable-background="new -5 97 600 600" xml:space="preserve">
<g>
	<path fill="#444444" d="M196.6,403.7c28.7-6.4,61.3-10,95.9-10c35,0,68,3.7,97,10.2c7-9.7,16.4-17.1,27.2-21L435.8,208
		c-1.8-10.5-8-20.1-17.1-27.7c-19.8-20.9-68-35.6-124.3-35.6c-46.3,0-87.1,10-111.2,25.1c-17.3,9.1-29.5,24.3-32.3,42l20.2,171.8
		C181.2,387.5,189.9,394.6,196.6,403.7z"/>
	<path fill="#444444" d="M520.9,462c0-36.8-29.8-66.7-66.7-66.7c-24.2,0-45.3,12.9-57,32.1c-30.3-9.2-65.8-14.5-103.7-14.5
		c-38,0-73.4,5.3-103.7,14.5c-11.7-19.2-32.9-32.1-57-32.1C95.9,395.3,66,425.1,66,462c0,30,19.8,55.4,47.1,63.7L124,650l0.6-0.1
		v0.1h44.3v-6.6l3.8-48.2h241l4.8,54.7l0.8-0.1v0.2h44.3v-5.8l9.4-118.3C500.7,517.8,520.9,492.2,520.9,462z"/>
</g>
</svg>
