<?xml version="1.0" encoding="utf-8"?>
<!-- Generator: Adobe Illustrator 18.1.1, SVG Export Plug-In . SVG Version: 6.00 Build 0)  -->
<svg version="1.1" id="Layer_1" xmlns="http://www.w3.org/2000/svg" xmlns:xlink="http://www.w3.org/1999/xlink" x="0px" y="0px"
	 width="400px" height="600px" viewBox="-797 -189 400 600" enable-background="new -797 -189 400 600" xml:space="preserve">
<path fill="#444444" d="M-462.5,194.3c0,59.9-45.5,105.9-103.2,115.3v50.4c0,5.2-4,9.2-9.2,9.2h-38.9c-5,0-9.2-4.2-9.2-9.2v-50.4
	c-21-2.9-41.8-9.4-60.8-19c-15.8-7.9-33.6-18.8-45-32.6c-3.3-4-3.5-8-0.6-11.8l29.7-38.9c1.3-1.9,3.5-3.1,6.6-3.5
	c2.9-0.4,5.2,0.5,6.9,2.6l0.6,0.6c21.7,19,45.1,31,70.1,36c31.8,6.9,78.7-3.3,80.1-43.1c0.6-17.3-12.3-30.2-26.4-38
	c-14.9-8.3-30.6-14.8-46.5-20.9c-26.6-10.9-53.5-21.3-76.6-38.9c-25.3-19.3-39.8-48.1-39.9-79.9c0-57.6,48.5-98.2,101.8-108.4v-51.9
	c0-5,4.2-9.2,9.2-9.2h38.9c5.2,0,9.2,4,9.2,9.2v50.7c32.2,3.4,67.5,16.2,90.8,39.5c3.3,3.5,3.8,7.1,1.4,11l-23.4,42.1
	c-1.5,2.9-3.7,4.4-6.6,4.6c-2.7,0.6-5.3-0.1-7.8-2c-15.4-15.4-40.2-25.6-61.2-29.5c-22.4-4.2-49.5-1.3-66.9,14.9
	c-7.9,7.3-12.3,17.1-12.3,27.9c0,13.6,6.8,22.6,16.8,31c16.7,14,39.1,21.3,59.3,29c24.4,9.2,50.1,18.6,71.1,34.4
	c12,9,23.6,19.2,30.6,32.6C-466.4,162.3-462.5,178.3-462.5,194.3L-462.5,194.3z"/>
</svg>
