<?xml version="1.0" encoding="utf-8"?>
<!-- Generator: Adobe Illustrator 18.1.1, SVG Export Plug-In . SVG Version: 6.00 Build 0)  -->
<svg version="1.1" id="Layer_1" xmlns="http://www.w3.org/2000/svg" xmlns:xlink="http://www.w3.org/1999/xlink" x="0px" y="0px"
	 width="600px" height="600px" viewBox="-891 -189 600 600" enable-background="new -891 -189 600 600" xml:space="preserve">
<path fill="#444444" d="M-381.3-43.6c5.6,5.6,10.4,13.2,14.4,22.8c4,9.6,6,18.4,6,26.4v345.1c0,8-2.8,14.8-8.4,20.4
	c-5.6,5.6-12.4,8.4-20.4,8.4h-402.6c-8,0-14.8-2.8-20.4-8.4c-5.6-5.6-8.4-12.4-8.4-20.4v-479.3c0-8,2.8-14.8,8.4-20.4
	c5.6-5.6,12.4-8.4,20.4-8.4h268.4c8,0,16.8,2,26.4,6c9.6,4,17.2,8.8,22.8,14.4L-381.3-43.6z M-514.3-116.7V-4.1h112.6
	c-2-5.8-4.2-9.9-6.6-12.3l-93.8-93.8C-504.4-112.5-508.5-114.7-514.3-116.7L-514.3-116.7z M-399.3,341V34.3h-124.6
	c-8,0-14.8-2.8-20.4-8.4s-8.4-12.4-8.4-20.4v-124.6h-230.1V341H-399.3z M-751.3,72.6v32.1h21l49.1,198h47.6l38.3-145.3
	c1.4-4,2.4-8.6,3-13.8c0.4-3.2,0.6-5.6,0.6-7.2h1.2l0.9,7.2c0.2,0.6,0.6,2.6,1.1,6c0.5,3.4,1,6,1.6,7.8l38.3,145.3h47.6l49.1-198h21
	V72.6h-89.9v32.1h27l-29.7,131.2c-1,4-1.7,8.6-2.1,13.8l-0.6,6.3h-1.2l-0.9-6.3c-0.2-1-0.6-3.1-1.2-6.3c-0.6-3.2-1.1-5.7-1.5-7.5
	L-574,72.6h-34.1l-43.1,163.3c-0.4,1.8-0.8,4.2-1.3,7.3c-0.5,3.1-0.8,5.2-1.1,6.4l-1.2,6.3h-1.2l-0.6-6.3c-0.4-5.2-1.1-9.8-2.1-13.8
	l-29.7-131.2h27V72.6L-751.3,72.6L-751.3,72.6z"/>
</svg>
