<?xml version="1.0" encoding="utf-8"?>
<!-- Generator: Adobe Illustrator 18.1.1, SVG Export Plug-In . SVG Version: 6.00 Build 0)  -->
<svg version="1.1" id="Layer_1" xmlns="http://www.w3.org/2000/svg" xmlns:xlink="http://www.w3.org/1999/xlink" x="0px" y="0px"
	 width="600px" height="600px" viewBox="-579 97 600 600" enable-background="new -579 97 600 600" xml:space="preserve">
<path fill="#444444" d="M-70.3,432.3v173.9c0,6.3-2.3,11.7-6.9,16.3c-4.6,4.6-10,6.9-16.3,6.9h-139.2V490.3h-92.8v139.2h-139.2
	c-6.3,0-11.7-2.3-16.3-6.9c-4.6-4.6-6.9-10-6.9-16.3V432.3c0-0.2,0.1-0.6,0.2-1.1c0.1-0.5,0.2-0.8,0.2-1.1L-279,258.4l208.4,171.8
	C-70.4,430.6-70.3,431.3-70.3,432.3z M10.6,407.3l-22.5,26.8c-1.9,2.2-4.5,3.5-7.6,4h-1.1c-3.1,0-5.7-0.8-7.6-2.5L-279,226.5
	l-250.8,209.1c-2.9,1.9-5.8,2.8-8.7,2.5c-3.1-0.5-5.7-1.8-7.6-4l-22.5-26.8c-1.9-2.4-2.8-5.2-2.5-8.5c0.2-3.3,1.6-5.9,4-7.8
	l260.5-217.1c7.7-6.3,16.9-9.4,27.6-9.4s19.8,3.1,27.6,9.4l88.4,73.9v-70.7c0-3.4,1.1-6.2,3.3-8.3c2.2-2.2,5-3.3,8.3-3.3h69.6
	c3.4,0,6.2,1.1,8.3,3.3c2.2,2.2,3.3,5,3.3,8.3V325l79.4,66c2.4,1.9,3.7,4.5,4,7.8C13.3,402,12.5,404.9,10.6,407.3L10.6,407.3z"/>
</svg>
