<?xml version="1.0" encoding="utf-8"?>
<!-- Generator: Adobe Illustrator 19.0.1, SVG Export Plug-In . SVG Version: 6.00 Build 0)  -->
<svg version="1.1" id="Layer_1" xmlns="http://www.w3.org/2000/svg" xmlns:xlink="http://www.w3.org/1999/xlink" x="0px" y="0px"
	 width="600px" height="600px" viewBox="-5 97 600 600" enable-background="new -5 97 600 600" xml:space="preserve">
<path fill="#444444" d="M505,181H17c-6.6,0-12,5.4-12,12v398c0,6.6,5.4,12,12,12h488c6.6,0,12-5.4,12-12V193
	C517,186.4,511.6,181,505,181z M257,515c0,6.6-5.4,12-12,12H68c-6.6,0-12-5.4-12-12V352c0-6.6,5.4-12,12-12h177c6.6,0,12,5.4,12,12
	V515z M467,515c0,6.6-5.4,12-12,12H317c-6.6,0-12-5.4-12-12v-13c0-6.6,5.4-12,12-12h138c6.6,0,12,5.4,12,12V515z M467,443.9
	c0,6.6-5.4,12-12,12H317c-6.6,0-12-5.4-12-12v-14.3c0-6.6,5.4-12,12-12h138c6.6,0,12,5.4,12,12V443.9z M305,365.6V352
	c0-6.6,5.4-12,12-12h102c6.6,0,12,5.4,12,12v13.5c0,6.6-5.4,12-12,12H317C310.4,377.6,305,372.2,305,365.6z M467,280
	c0,6.6-5.4,12-12,12H68c-6.6,0-12-5.4-12-12v-13c0-6.6,5.4-12,12-12h387c6.6,0,12,5.4,12,12V280z"/>
<path fill="#444444" d="M555,603h-1c-6.6,0-12-5.4-12-12V242c0-6.6,5.4-12,12-12h1c6.6,0,12,5.4,12,12v349
	C567,597.6,561.6,603,555,603z"/>
</svg>
