<?xml version="1.0" encoding="utf-8"?>
<!-- Generator: Adobe Illustrator 19.0.1, SVG Export Plug-In . SVG Version: 6.00 Build 0)  -->
<svg version="1.1" id="Layer_1" xmlns="http://www.w3.org/2000/svg" xmlns:xlink="http://www.w3.org/1999/xlink" x="0px" y="0px"
	 width="600px" height="600px" viewBox="-5 97 600 600" enable-background="new -5 97 600 600" xml:space="preserve">
<path fill="#444444" d="M202.7,452.7c3.4,2.3,9,5.3,15.7,4.7c5.1-0.4,8.9-2.7,11-4.3c94.2-73.7,190-165,190-165l-162,200
	c1.1,23.6,2.2,47.1,3.3,70.7c0.9,2.9,4.1,12.7,10,13.3c3.8,0.4,7.1-3.2,8.7-5c25.6-29.2,49-61,49-61l91,36c0,0,10.2,4.4,14.4,0.1
	c1.1-1.2,1.5-2.6,1.6-3.1c1.7-8,36.6-244.2,46.7-312.3c1.3-4.6,2.7-11.6-0.7-14.7c-4.5-4-15,1.1-19,3
	c-28.1,13.6-273.1,159.2-325,190c-1.7,0.7-4.5,2.3-5.8,5.3c-2.2,5.1,0.7,12.5,7.8,17C160.4,435.8,181.6,444.2,202.7,452.7z"/>
</svg>
