<?xml version="1.0" encoding="utf-8"?>
<!-- Generator: Adobe Illustrator 19.1.0, SVG Export Plug-In . SVG Version: 6.00 Build 0)  -->
<svg version="1.1" id="Layer_1" xmlns="http://www.w3.org/2000/svg" xmlns:xlink="http://www.w3.org/1999/xlink" x="0px" y="0px"
	 width="600px" height="600px" viewBox="-5 97 600 600" enable-background="new -5 97 600 600" xml:space="preserve">
<g>
	<path fill="#444444" d="M461,501.1l-27,26.4V267.8c-0.3-0.5-0.6-1-0.9-1.4c-1.4-1.6-3.1-2.9-4.4-4.4c-0.5-0.5-0.9-1-1.3-1.6
		L314,154.8c-2.4-1-4.9-1.7-7.5-2.3H79.3c-6.6,0-12,5.4-12,12V630c0,6.6,5.4,12,12,12h261.6l-5.6,18.8l30.6-7.6l30.6-7.6l-3.6-3.7
		H422c6.6,0,12-5.4,12-12v-24.1l66.2-64.7L461,501.1z M373.6,622.5l-20.6-21l-6.3,21H86.5v-449h219v104H413v270.4l-46.6,45.5
		l27.3,28v1.1H373.6z"/>
	<path fill="#444444" d="M534.9,492.9l-27-26.2c-4.7-4.6-12.4-4.5-17,0.2l-12.9,13.3c-4.6,4.7-4.5,12.4,0.2,17l27,26.2
		c4.7,4.6,12.4,4.5,17-0.2l12.9-13.3C539.8,505.1,539.7,497.5,534.9,492.9z"/>
	<rect x="126.2" y="318.2" fill="#444444" width="141.8" height="30"/>
	<rect x="126.2" y="374.2" fill="#444444" width="263.8" height="31.5"/>
	<rect x="126.2" y="425.2" fill="#444444" width="263.8" height="32.2"/>
	<rect x="126.2" y="481" fill="#444444" width="263.8" height="31.8"/>
	<rect x="126.2" y="537" fill="#444444" width="263.8" height="32.2"/>
</g>
</svg>
