<?xml version="1.0" encoding="utf-8"?>
<!-- Generator: Adobe Illustrator 18.1.1, SVG Export Plug-In . SVG Version: 6.00 Build 0)  -->
<svg version="1.1" id="Layer_1" xmlns="http://www.w3.org/2000/svg" xmlns:xlink="http://www.w3.org/1999/xlink" x="0px" y="0px"
	 width="600px" height="600px" viewBox="-577 97 600 600" enable-background="new -577 97 600 600" xml:space="preserve">
<path fill="#444444" d="M-314.3,484c-14.2,74.2-31.5,145.4-82.7,182.5c-15.8-112.2,23.2-196.4,41.3-285.8
	c-30.9-52,3.7-156.6,68.8-130.8c80.2,31.7-69.4,193.3,31,213.5c104.8,21,147.7-181.9,82.6-247.9c-93.9-95.3-273.4-2.2-251.3,134.3
	c5.4,33.4,39.8,43.5,13.8,89.5c-60.1-13.3-78.1-60.7-75.7-124c3.7-103.5,92.9-175.9,182.5-185.9c113.2-12.7,219.5,41.6,234.1,148.1
	c16.5,120.2-51.1,250.4-172.2,241C-274.8,515.9-288.6,499.6-314.3,484z"/>
</svg>
