<?xml version="1.0" encoding="utf-8"?>
<!-- Generator: Adobe Illustrator 18.1.1, SVG Export Plug-In . SVG Version: 6.00 Build 0)  -->
<svg version="1.1" id="Layer_1" xmlns="http://www.w3.org/2000/svg" xmlns:xlink="http://www.w3.org/1999/xlink" x="0px" y="0px"
	 width="600px" height="600px" viewBox="-577 97 600 600" enable-background="new -577 97 600 600" xml:space="preserve">
<path fill="#444444" d="M-530.2,397c0-35.8,7.4-70.1,22.1-103.1l120.8,330.9c-43-20.8-77.6-51.7-103.7-92.5
	C-517.2,491.5-530.2,446.4-530.2,397L-530.2,397z M-106.1,384.2c0,4.2-0.3,8.4-0.8,12.7c-0.5,4.3-1.6,9.7-3.3,16.3
	c-1.6,6.6-2.9,11.4-3.8,14.5c-0.9,3.1-2.8,9.6-5.8,19.4c-3,9.9-4.9,16.2-5.8,19.1l-25,84.3l-91.5-272c10.1-0.7,19.8-1.5,29-2.6
	c4.2-0.4,7-2.5,8.6-6.1c1.5-3.6,1.3-7-0.8-10.2c-2.1-3.2-5.2-4.7-9.4-4.4l-67.5,3.3c-16.5-0.2-38.6-1.3-66.5-3.3
	c-2.6-0.2-4.9,0.3-6.7,1.6c-1.9,1.3-3.1,3-3.8,4.9c-0.7,2-0.8,4-0.5,6.1s1.3,3.9,3,5.4s3.8,2.4,6.4,2.6l26.3,2.6l39.5,108
	l-55.3,165.9l-92.2-273.9c10.1-0.7,19.8-1.5,29-2.6c4.2-0.4,7-2.5,8.6-6.1c1.5-3.6,1.3-7-0.8-10.2c-2.1-3.2-5.2-4.7-9.4-4.4
	l-67.5,3.3c-1.5,0-4.1-0.1-7.6-0.2c-3.5-0.1-6.4-0.2-8.6-0.2c23.1-35.1,53.2-62.9,90.4-83.5s77.5-30.8,121-30.8
	c32.3,0,63.1,5.8,92.4,17.4c29.3,11.6,55.5,28,78.5,49.1h-3.3c-12.1,0-22.2,4.4-30.3,13.3s-12.2,19.4-12.2,31.4
	c0,2.6,0.2,5.3,0.7,7.9c0.4,2.6,0.9,5,1.3,7.1c0.4,2.1,1.3,4.6,2.6,7.6c1.3,3,2.3,5.3,3,6.9c0.7,1.6,2,4.1,3.9,7.4
	c2,3.3,3.3,5.6,4.1,6.9c0.8,1.3,2.4,3.9,4.8,7.9c2.4,4,3.9,6.5,4.6,7.6C-112.9,337.9-106,361.1-106.1,384.2L-106.1,384.2z
	 M-272.7,419.1l78,213c0.2,1.3,0.8,2.5,1.6,3.6c-27.7,9.7-55.6,14.5-84,14.5c-24.6,0-48.4-3.5-71.5-10.5L-272.7,419.1z M-55.1,275.5
	c20.8,38.2,31.3,78.7,31.3,121.5c0,45.9-11.4,88.2-34.2,126.9s-53.4,69.3-91.9,91.7l77.4-223.2c13-37.1,19.4-67.4,19.4-90.9
	C-53.1,292.3-53.8,283.7-55.1,275.5L-55.1,275.5z M-277,102c40,0,78.1,7.8,114.6,23.4s67.8,36.5,94.2,62.9
	c26.4,26.3,47.3,57.7,62.9,94.2S18,357.1,18,397c0,39.9-7.8,78.1-23.4,114.6s-36.6,67.8-62.9,94.2c-26.3,26.3-57.7,47.3-94.2,62.9
	C-198.9,684.2-237.1,692-277,692c-39.9,0-78.1-7.8-114.6-23.4c-36.5-15.6-67.8-36.5-94.2-62.9c-26.3-26.3-47.3-57.7-62.9-94.2
	C-564.2,475.1-572,436.9-572,397s7.8-78.1,23.4-114.6c15.6-36.4,36.5-67.8,62.9-94.2s57.7-47.3,94.2-62.9S-317,102-277,102z
	 M-277,678.5c38,0,74.4-7.5,109.2-22.4c34.8-14.9,64.8-35,89.9-60.1c25.1-25.1,45.2-55.1,60.1-89.9S4.5,435,4.5,397
	s-7.5-74.4-22.4-109.2s-34.9-64.8-60.1-89.9s-55.1-45.2-89.9-60.1S-239,115.5-277,115.5s-74.4,7.5-109.2,22.4s-64.7,35-89.9,60.1
	c-25.2,25.1-45.2,55.1-60.1,89.9S-558.5,359-558.5,397c0,38,7.4,74.4,22.4,109.2s35,64.8,60.1,89.9c25.1,25.1,55.1,45.2,89.9,60.1
	C-351.4,671.1-315,678.5-277,678.5z"/>
</svg>
