<?xml version="1.0" encoding="utf-8"?>
<!-- Generator: Adobe Illustrator 18.1.1, SVG Export Plug-In . SVG Version: 6.00 Build 0)  -->
<svg version="1.1" id="Layer_1" xmlns="http://www.w3.org/2000/svg" xmlns:xlink="http://www.w3.org/1999/xlink" x="0px" y="0px"
	 width="600px" height="600px" viewBox="-891 411 600 600" enable-background="new -891 411 600 600" xml:space="preserve">
<path fill="#444444" d="M-524.7,824.7v68.9c0,14.6-4.2,21.9-12.7,21.9c-5,0-9.9-2.4-14.7-7.2V810c4.8-4.8,9.7-7.2,14.7-7.2
	C-528.9,802.8-524.7,810.1-524.7,824.7z M-414.2,825v15h-29.4v-15c0-14.8,4.9-22.2,14.7-22.2C-419.1,802.8-414.2,810.2-414.2,825z
	 M-729.9,753.8h35v-30.7h-101.9v30.7h34.3v185.9h32.7L-729.9,753.8L-729.9,753.8z M-635.8,939.7h29.1V778.3h-29.1v123.5
	c-6.5,9.1-12.7,13.7-18.6,13.7c-3.9,0-6.2-2.3-6.9-6.9c-0.2-0.7-0.3-4.5-0.3-11.4V778.3h-29.1V906c0,10.7,0.9,18.6,2.6,23.9
	c2.6,8.1,8.9,12.1,18.9,12.1c10.5,0,21.6-6.6,33.3-19.9L-635.8,939.7L-635.8,939.7z M-495.6,891.4V827c0-15.9-1-26.7-2.9-32.4
	c-3.7-12.2-11.4-18.3-23.2-18.3c-10.9,0-21,5.9-30.4,17.6v-70.9h-29.1v216.6h29.1V924c9.8,12,19.9,18,30.4,18c11.8,0,19.5-6,23.2-18
	C-496.6,918.1-495.6,907.3-495.6,891.4L-495.6,891.4z M-385.1,888.1v-4.2h-29.7c0,11.1-0.2,17.8-0.6,19.9
	c-1.5,7.8-5.9,11.8-13.1,11.8c-10,0-15-7.5-15-22.5v-28.4h58.5v-33.6c0-17.2-2.9-29.8-8.8-37.9c-8.5-11.1-20-16.7-34.6-16.7
	c-14.8,0-26.5,5.6-35,16.7c-6.1,8.1-9.2,20.7-9.2,37.9v56.5c0,17.2,3.2,29.8,9.5,37.9c8.5,11.1,20.2,16.7,35.3,16.7
	c15.7,0,27.4-5.8,35.3-17.3c3.9-5.9,6.2-11.8,6.9-17.6C-385.4,905.1-385.2,898.8-385.1,888.1L-385.1,888.1z M-583.8,589.8v-68.6
	c0-15-4.7-22.5-14.1-22.5s-14.1,7.5-14.1,22.5v68.6c0,15.3,4.7,22.9,14.1,22.9S-583.8,605-583.8,589.8z M-348.9,835.2
	c0,51-2.8,89.1-8.5,114.4c-3.1,12.9-9.4,23.6-18.9,32.4c-9.6,8.7-20.7,13.7-33.3,15c-40.1,4.6-100.5,6.9-181.3,6.9
	s-141.3-2.3-181.3-6.9c-12.6-1.3-23.8-6.3-33.5-15c-9.7-8.7-16-19.5-18.8-32.4c-5.7-24.4-8.5-62.5-8.5-114.4
	c0-51,2.8-89.1,8.5-114.4c3.1-12.9,9.4-23.6,18.9-32.4s20.8-13.8,33.6-15.3c39.9-4.4,100.2-6.5,181-6.5s141.3,2.2,181.3,6.5
	c12.6,1.5,23.8,6.6,33.5,15.3c9.7,8.7,16,19.5,18.8,32.4C-351.7,745.2-348.9,783.3-348.9,835.2L-348.9,835.2z M-675,418.2h33.3
	l-39.5,130.4v88.5h-32.7v-88.5c-3.1-16.1-9.7-39.2-19.9-69.3c-8.1-22.4-15.1-42.8-21.2-61.1h34.6l23.2,85.9L-675,418.2z M-554.1,527
	v57.2c0,17.6-3.1,30.5-9.2,38.6c-8.1,11.1-19.6,16.7-34.6,16.7c-14.6,0-26-5.6-34.3-16.7c-6.1-8.3-9.2-21.1-9.2-38.6V527
	c0-17.4,3.1-30.2,9.2-38.2c8.3-11.1,19.7-16.7,34.3-16.7c15,0,26.6,5.6,34.6,16.7C-557.1,496.9-554.1,509.6-554.1,527z
	 M-444.6,474.1v163h-29.7v-18c-11.5,13.5-22.8,20.3-33.6,20.3c-10,0-16.5-4-19.3-12.1c-1.7-5.2-2.6-13.4-2.6-24.5V474.1h29.7V594
	c0,7.2,0.1,11,0.3,11.4c0.7,4.8,2.9,7.2,6.9,7.2c5.9,0,12.1-4.7,18.6-14.1V474.1L-444.6,474.1L-444.6,474.1z"/>
</svg>
