<?xml version="1.0" encoding="utf-8"?>
<!-- Generator: Adobe Illustrator 18.1.1, SVG Export Plug-In . SVG Version: 6.00 Build 0)  -->
<svg version="1.1" id="Layer_1" xmlns="http://www.w3.org/2000/svg" xmlns:xlink="http://www.w3.org/1999/xlink" x="0px" y="0px"
	 width="600px" height="600px" viewBox="-891 -189 600 600" enable-background="new -891 -189 600 600" xml:space="preserve">
<path fill="#444444" d="M-383.9-41.7c5.5,5.5,10.3,13,14.2,22.5c3.9,9.5,5.9,18.1,5.9,26v340.9c0,7.9-2.8,14.6-8.3,20.1
	c-5.5,5.5-12.2,8.3-20.1,8.3h-397.7c-7.9,0-14.6-2.8-20.1-8.3c-5.5-5.5-8.3-12.2-8.3-20.1v-473.4c0-7.9,2.8-14.6,8.3-20.1
	c5.5-5.5,12.2-8.3,20.1-8.3h265.1c7.9,0,16.6,2,26,5.9c9.5,4,17,8.7,22.5,14.2L-383.9-41.7z M-515.3-113.9V-2.6H-404
	c-2-5.7-4.1-9.8-6.5-12.1l-92.6-92.6C-505.5-109.8-509.5-111.9-515.3-113.9L-515.3-113.9z M-401.6,338.2v-303h-123.1
	c-7.9,0-14.6-2.8-20.1-8.3c-5.5-5.5-8.3-12.2-8.3-20.1v-123.1h-227.2v454.5H-401.6z M-553.7,162.8c6.5,5.1,14.8,10.6,24.8,16.6
	c11.6-1.4,23.2-2.1,34.6-2.1c29,0,46.5,4.8,52.4,14.5c3.2,4.3,3.4,9.5,0.6,15.4c0,0.2-0.1,0.4-0.3,0.6l-0.6,0.6v0.3
	c-1.2,7.5-8.2,11.2-21,11.2c-9.5,0-20.8-2-34-5.9c-13.2-4-26-9.2-38.5-15.7c-43.6,4.7-82.3,12.9-116,24.6
	c-30.2,51.7-54.1,77.5-71.6,77.5c-3,0-5.7-0.7-8.3-2.1l-7.1-3.5c-0.2-0.2-0.8-0.7-1.8-1.5c-2-2-2.6-5.5-1.8-10.6
	c1.8-7.9,7.3-16.9,16.6-27.1c9.3-10.2,22.3-19.7,39.1-28.6c2.8-1.8,5-1.2,6.8,1.8c0.4,0.4,0.6,0.8,0.6,1.2
	c10.3-16.8,20.8-36.2,31.7-58.3c13.4-26.8,23.7-52.7,30.8-77.5c-4.7-16.2-7.7-31.9-9-47.2c-1.3-15.3-0.6-27.9,1.9-37.7
	c2.2-7.9,6.3-11.8,12.4-11.8h6.5c4.5,0,8,1.5,10.4,4.4c3.5,4.1,4.4,10.8,2.7,20.1c-0.4,1.2-0.8,2-1.2,2.4c0.2,0.6,0.3,1.4,0.3,2.4
	v8.9c-0.4,24.3-1.8,43.2-4.1,56.8C-586.1,124.7-571.7,148.2-553.7,162.8L-553.7,162.8z M-724.1,284.4c10.3-4.7,23.8-20.3,40.5-46.8
	c-10.1,7.9-18.7,16.2-25.9,24.9C-716.7,271.2-721.6,278.5-724.1,284.4L-724.1,284.4z M-606.4,12.2c-3,8.3-3.1,21.3-0.6,39.1
	c0.2-1.4,0.9-5.7,2.1-13c0-0.6,0.7-4.8,2.1-12.7c0.2-0.8,0.6-1.6,1.2-2.4c-0.2-0.2-0.3-0.4-0.3-0.6s-0.1-0.3-0.2-0.4
	c-0.1-0.1-0.2-0.2-0.2-0.4c-0.2-4.3-1.5-7.9-3.8-10.6c0,0.2-0.1,0.4-0.3,0.6L-606.4,12.2L-606.4,12.2z M-643.1,207.7
	c26.6-10.7,54.6-18.6,84-24c-0.4-0.2-1.7-1.1-3.8-2.8c-2.2-1.7-3.7-3-4.7-4c-15-13.2-27.5-30.6-37.6-52.1
	c-5.3,17-13.5,36.4-24.6,58.3C-635.7,194.2-640.1,202.4-643.1,207.7L-643.1,207.7z M-451.9,203c-4.7-4.7-18.5-7.1-41.4-7.1
	c15,5.5,27.2,8.3,36.7,8.3c2.8,0,4.5-0.1,5.3-0.3C-451.4,203.7-451.6,203.4-451.9,203L-451.9,203z"/>
</svg>
