<?xml version="1.0" encoding="utf-8"?>
<!-- Generator: Adobe Illustrator 18.1.1, SVG Export Plug-In . SVG Version: 6.00 Build 0)  -->
<svg version="1.1" id="Layer_1" xmlns="http://www.w3.org/2000/svg" xmlns:xlink="http://www.w3.org/1999/xlink" x="0px" y="0px"
	 width="600px" height="600px" viewBox="-891 -189 600 600" enable-background="new -891 -189 600 600" xml:space="preserve">
<path fill="#444444" d="M-789.9,276.8c0,18.3,14.8,33.2,33.2,33.2h132.6v66.3h-165.8c-36.6,0-66.3-29.7-66.3-66.3V144.2h66.3V276.8z
	 M-789.9-54.8V77.8h-66.3V-87.9c0-36.6,29.7-66.3,66.3-66.3h165.8v66.3h-132.6C-775.1-87.9-789.9-73.1-789.9-54.8z M-557.8,243.6
	h-66.3v-99.5h-99.5V77.8h99.5v-99.5h66.3v99.5h99.5v66.3h-99.5V243.6z M-392.1-154.2c36.6,0,66.3,29.7,66.3,66.3V77.8h-66.3V-54.8
	c0-18.3-14.8-33.2-33.2-33.2h-132.6v-66.3H-392.1z M-392.1,276.8V144.2h66.3v165.8c0,36.6-29.7,66.3-66.3,66.3h-165.8v-66.3h132.6
	C-406.9,309.9-392.1,295.1-392.1,276.8z"/>
</svg>
