<?xml version="1.0" encoding="utf-8"?>
<!-- Generator: Adobe Illustrator 18.1.1, SVG Export Plug-In . SVG Version: 6.00 Build 0)  -->
<svg version="1.1" id="Layer_1" xmlns="http://www.w3.org/2000/svg" xmlns:xlink="http://www.w3.org/1999/xlink" x="0px" y="0px"
	 width="600px" height="600px" viewBox="-892 -189 600 600" enable-background="new -892 -189 600 600" xml:space="preserve">
<path fill="#444444" d="M-617.5,100.6c0,7,3.1,13.8,9.3,20.4c6.2,6.7,13.7,13.2,22.5,19.7c8.8,6.5,17.5,13.6,26.2,21.3
	c8.7,7.7,16.1,17.8,22.3,30.2s9.3,26.1,9.3,41.2c0,17.4-4.6,34.1-13.9,50.2c-13.9,23.6-34.3,40.9-61.2,52
	c-26.9,11.1-55.7,16.7-86.4,16.7c-25.5,0-49.3-4-71.5-12s-38.7-21.3-49.7-39.9c-7.1-11.6-10.7-24.3-10.7-38
	c0-15.7,4.3-30.2,12.9-43.5c8.6-13.3,20.1-24.4,34.4-33.3c25.3-15.8,64.4-25.5,117.1-29c-6.2-8.1-10.8-15.3-13.8-21.4
	c-3-6.2-4.5-13.2-4.5-21.2c0-7,2-15.2,6.1-24.6c-8.9,0.8-15.5,1.2-19.7,1.2c-28.6,0-52.7-9.3-72.3-28s-29.4-42.3-29.4-70.9
	c0-15.8,3.5-31.2,10.4-46.1s16.5-27.5,28.7-38c14.9-12.8,32.5-22.2,52.9-28.4c20.4-6.2,41.4-9.3,63-9.3h121.2l-40,25.5h-38
	c14.3,12.2,25.1,25,32.5,38.6c7.3,13.5,11,29,11,46.4c0,13.9-2.4,26.4-7.1,37.5c-4.7,11.1-10.4,20.1-17.1,27s-13.4,13.1-20.1,18.9
	c-6.8,5.7-12.5,11.6-17.3,17.8C-615.2,87.6-617.5,94-617.5,100.6L-617.5,100.6z M-659.8,72.8c7.3,0,14.9-1.6,22.6-4.8
	c7.7-3.2,14.1-7.4,19.1-12.6c10.2-11,15.4-26.4,15.4-46.1c0-11.2-1.6-23.3-4.9-36.2c-3.3-13-8-25.5-14.1-37.5
	c-6.1-12.1-14.2-22.1-24.5-30s-21.5-11.9-33.9-11.9c-8.1,0-16.1,1.9-23.9,5.7c-7.8,3.8-14.2,8.8-19,15.2
	c-9.1,11.4-13.6,26.9-13.6,46.4c0,8.9,1,18.3,2.9,28.3s5,19.9,9.1,29.9c4.2,10,9.2,18.9,15.1,26.8s13.1,14.4,21.7,19.4
	C-679.2,70.2-669.9,72.7-659.8,72.8L-659.8,72.8z M-659.3,325.8c11.2,0,22-1.3,32.3-3.8s19.9-6.3,28.7-11.3
	c8.8-5,15.9-12.1,21.2-21.2c5.3-9.1,8-19.6,8-31.6c0-4.8-0.7-9.6-2-14.2c-1.3-4.6-2.8-8.7-4.2-12.2c-1.5-3.5-4.1-7.5-7.8-12
	c-3.8-4.5-6.6-7.9-8.6-10.1c-1.9-2.2-5.7-5.6-11.2-10c-5.5-4.4-9-7.2-10.6-8.4s-5.6-4.1-12-8.7c-6.5-4.6-10-7.1-10.6-7.5
	c-3.1-0.4-7.7-0.6-13.9-0.6c-10.2,0-20.4,0.7-30.4,2c-10.1,1.3-20.4,3.8-31.2,7.3c-10.7,3.5-20.1,7.9-28.1,13.3
	c-8,5.4-14.6,12.6-19.9,21.6c-5.2,9-7.8,19.2-7.8,30.6c0,13.5,3.4,25.5,10.1,35.8c6.8,10.3,15.6,18.4,26.5,24.1s22.4,10,34.5,12.8
	S-671.8,325.9-659.3,325.8L-659.3,325.8z M-424.4,71.9h61.7v31.3h-61.7v63.5h-30.4v-63.5h-61.5V71.9h61.5V9h30.4
	C-424.4,9-424.4,71.9-424.4,71.9z"/>
</svg>
