<?xml version="1.0" encoding="utf-8"?>
<!-- Generator: Adobe Illustrator 18.1.1, SVG Export Plug-In . SVG Version: 6.00 Build 0)  -->
<svg version="1.1" id="Layer_1" xmlns="http://www.w3.org/2000/svg" xmlns:xlink="http://www.w3.org/1999/xlink" x="0px" y="0px"
	 width="600px" height="600px" viewBox="-577 97 600 600" enable-background="new -577 97 600 600" xml:space="preserve">
<desc  version="4.5" iVinci="yes" showGrid="no" gridStep="20" snapToGrid="no" codePlatform="0"></desc>
<g id="Layer1">
	<g id="Shape1">
		
			<desc  type="0" transform="matrix(1.86925,0,0,1.86925,14.0537,14)" shapeID="1" text="" bounding="rect(-2.00001,-7.15487,4.00001,14.3097)" font-bold="0" shadowOpacity="160" markerEnd="0" font-underline="0" markerStart="0" strokeStyle="0" blurEnabled="0" shadowOffsetY="2" blurRadius="4" shadowOffsetX="0" shadowEnabled="0" font-pixelSize="20" font-alignment="1" font-familyName="" pers-center="0,0" pers-size="0,0" pers-start="0,0" pers-end="0,0" locked="0" shadowBlur="4" flag="" mesh="" basicInfo-starPoints="5" basicInfo-polygonSides="6" basicInfo-roundedRectRadius="12" basicInfo-basicType="0">
			</desc>
		<path id="shapePath1" fill="#444444" d="M-208.7,520v100.9c0,4.6-1.7,8.5-5,11.8c-3.3,3.3-7.3,5-11.8,5h-100.9
			c-4.6,0-8.5-1.7-11.8-5c-3.3-3.3-5-7.3-5-11.8V520c0-4.6,1.7-8.5,5-11.8c3.3-3.3,7.3-5,11.8-5h100.9c4.6,0,8.5,1.7,11.8,5
			C-210.4,511.5-208.7,515.4-208.7,520 M-208.7,346.5v100.9c0,4.6-1.7,8.5-5,11.8c-3.3,3.3-7.3,5-11.8,5h-100.9
			c-4.6,0-8.5-1.7-11.8-5c-3.3-3.3-5-7.3-5-11.8V346.5c0-4.6,1.7-8.5,5-11.8c3.3-3.3,7.3-5,11.8-5h100.9c4.6,0,8.5,1.7,11.8,5
			C-210.4,338-208.7,342-208.7,346.5 M-208.7,173.1V274c0,4.6-1.7,8.5-5,11.8c-3.3,3.3-7.3,5-11.8,5h-100.9c-4.6,0-8.5-1.7-11.8-5
			c-3.3-3.3-5-7.3-5-11.8V173.1c0-4.6,1.7-8.5,5-11.8c3.3-3.3,7.3-5,11.8-5h100.9c4.6,0,8.5,1.7,11.8,5
			C-210.4,164.6-208.7,168.5-208.7,173.1z"/>
	</g>
	<g id="Shape2">
		
			<desc  type="0" transform="matrix(1.86925,0,0,1.86925,4.62918,14)" shapeID="2" text="" bounding="rect(-2.00001,-7.15487,4.00001,14.3097)" font-bold="0" shadowOpacity="160" markerEnd="0" font-underline="0" markerStart="0" strokeStyle="0" blurEnabled="0" shadowOffsetY="2" blurRadius="4" shadowOffsetX="0" shadowEnabled="0" font-pixelSize="20" font-alignment="1" font-familyName="" pers-center="0,0" pers-size="0,0" pers-start="0,0" pers-end="0,0" locked="0" shadowBlur="4" flag="" mesh="" basicInfo-starPoints="5" basicInfo-polygonSides="6" basicInfo-roundedRectRadius="12" basicInfo-basicType="0">
			</desc>
		<path id="shapePath2" fill="#444444" d="M-378.4,520v100.9c0,4.6-1.7,8.5-5,11.8c-3.3,3.3-7.3,5-11.8,5h-100.9
			c-4.6,0-8.5-1.7-11.8-5c-3.3-3.3-5-7.3-5-11.8V520c0-4.6,1.7-8.5,5-11.8c3.3-3.3,7.3-5,11.8-5h100.9c4.6,0,8.5,1.7,11.8,5
			C-380,511.5-378.4,515.4-378.4,520 M-378.4,346.5v100.9c0,4.6-1.7,8.5-5,11.8c-3.3,3.3-7.3,5-11.8,5h-100.9c-4.6,0-8.5-1.7-11.8-5
			c-3.3-3.3-5-7.3-5-11.8V346.5c0-4.6,1.7-8.5,5-11.8c3.3-3.3,7.3-5,11.8-5h100.9c4.6,0,8.5,1.7,11.8,5
			C-380,338-378.4,342-378.4,346.5 M-378.4,173.1V274c0,4.6-1.7,8.5-5,11.8c-3.3,3.3-7.3,5-11.8,5h-100.9c-4.6,0-8.5-1.7-11.8-5
			c-3.3-3.3-5-7.3-5-11.8V173.1c0-4.6,1.7-8.5,5-11.8c3.3-3.3,7.3-5,11.8-5h100.9c4.6,0,8.5,1.7,11.8,5
			C-380,164.6-378.4,168.5-378.4,173.1z"/>
	</g>
	<g id="Shape3">
		
			<desc  type="0" transform="matrix(1.86925,0,0,1.86925,23.3708,14)" shapeID="3" text="" bounding="rect(-2.00001,-7.15487,4.00001,14.3097)" font-bold="0" shadowOpacity="160" markerEnd="0" font-underline="0" markerStart="0" strokeStyle="0" blurEnabled="0" shadowOffsetY="2" blurRadius="4" shadowOffsetX="0" shadowEnabled="0" font-pixelSize="20" font-alignment="1" font-familyName="" pers-center="0,0" pers-size="0,0" pers-start="0,0" pers-end="0,0" locked="0" shadowBlur="4" flag="" mesh="" basicInfo-starPoints="5" basicInfo-polygonSides="6" basicInfo-roundedRectRadius="12" basicInfo-basicType="0">
			</desc>
		<path id="shapePath3" fill="#444444" d="M-41,520v100.9c0,4.6-1.7,8.5-5,11.8c-3.3,3.3-7.3,5-11.8,5h-100.9c-4.6,0-8.5-1.7-11.8-5
			c-3.3-3.3-5-7.3-5-11.8V520c0-4.6,1.7-8.5,5-11.8c3.3-3.3,7.3-5,11.8-5h100.9c4.6,0,8.5,1.7,11.8,5C-42.7,511.5-41,515.4-41,520
			 M-41,346.5v100.9c0,4.6-1.7,8.5-5,11.8c-3.3,3.3-7.3,5-11.8,5h-100.9c-4.6,0-8.5-1.7-11.8-5c-3.3-3.3-5-7.3-5-11.8V346.5
			c0-4.6,1.7-8.5,5-11.8c3.3-3.3,7.3-5,11.8-5h100.9c4.6,0,8.5,1.7,11.8,5C-42.7,338-41,342-41,346.5 M-41,173.1V274
			c0,4.6-1.7,8.5-5,11.8c-3.3,3.3-7.3,5-11.8,5h-100.9c-4.6,0-8.5-1.7-11.8-5c-3.3-3.3-5-7.3-5-11.8V173.1c0-4.6,1.7-8.5,5-11.8
			c3.3-3.3,7.3-5,11.8-5h100.9c4.6,0,8.5,1.7,11.8,5C-42.7,164.6-41,168.5-41,173.1z"/>
	</g>
</g>
</svg>
