<?xml version="1.0" encoding="utf-8"?>
<!-- Generator: Adobe Illustrator 18.1.1, SVG Export Plug-In . SVG Version: 6.00 Build 0)  -->
<svg version="1.1" id="Layer_1" xmlns="http://www.w3.org/2000/svg" xmlns:xlink="http://www.w3.org/1999/xlink" x="0px" y="0px"
	 width="600px" height="600px" viewBox="-567 97 600 600" enable-background="new -567 97 600 600" xml:space="preserve">
<path fill="#444444" d="M-445.1,377.2c0-21.9,17.7-39.6,39.6-39.6c21.9,0,39.6,17.7,39.6,39.6c0,21.9-17.7,39.6-39.6,39.6
	C-427.4,416.8-445.1,399.1-445.1,377.2z M-266.9,397l-99,99l-39.6-39.6l-79.2,79.2h356.4L-266.9,397z M-88.7,258.4h-435.6
	c-21.9,0-39.6,17.7-39.6,39.6v277.2c0,21.9,17.7,39.6,39.6,39.6h435.6c21.9,0,39.6-17.7,39.6-39.6V298
	C-49.1,276.1-66.8,258.4-88.7,258.4z M-88.7,575.2h-435.6V298h435.6V575.2z M-9.5,179.2h-435.6c-21.9,0-39.6,17.7-39.6,39.6H-9.5
	v316.8c21.9,0,39.6-17.7,39.6-39.6V218.8C30.1,197,12.4,179.2-9.5,179.2L-9.5,179.2z"/>
</svg>
