<?xml version="1.0" encoding="utf-8"?>
<!-- Generator: Adobe Illustrator 18.1.1, SVG Export Plug-In . SVG Version: 6.00 Build 0)  -->
<svg version="1.1" id="Layer_1" xmlns="http://www.w3.org/2000/svg" xmlns:xlink="http://www.w3.org/1999/xlink" x="0px" y="0px"
	 width="600px" height="600px" viewBox="-577 97 600 600" enable-background="new -577 97 600 600" xml:space="preserve">
<path fill="#444444" d="M-469,540v57.6c0,2.6-0.9,4.9-2.8,6.8c-1.9,1.9-4.1,2.9-6.8,2.8h-57.6c-2.6,0-4.9-0.9-6.8-2.8
	c-1.9-1.9-2.9-4.1-2.8-6.8V540c0-2.6,0.9-4.9,2.8-6.8s4.1-2.9,6.8-2.8h57.6c2.6,0,4.9,0.9,6.8,2.8C-469.9,535.1-469,537.4-469,540z
	 M-469,424.8v57.6c0,2.6-0.9,4.9-2.8,6.8c-1.9,1.9-4.1,2.9-6.8,2.8h-57.6c-2.6,0-4.9-0.9-6.8-2.8c-1.9-1.9-2.9-4.1-2.8-6.8v-57.6
	c0-2.6,0.9-4.9,2.8-6.8c1.9-1.9,4.1-2.9,6.8-2.8h57.6c2.6,0,4.9,0.9,6.8,2.8C-469.9,419.9-469,422.2-469,424.8z M-469,309.6v57.6
	c0,2.6-0.9,4.9-2.8,6.8c-1.9,1.9-4.1,2.9-6.8,2.8h-57.6c-2.6,0-4.9-0.9-6.8-2.8s-2.9-4.1-2.8-6.8v-57.6c0-2.6,0.9-4.9,2.8-6.8
	c1.9-1.9,4.1-2.9,6.8-2.8h57.6c2.6,0,4.9,0.9,6.8,2.8C-469.9,304.7-469,307-469,309.6z M-8.2,540v57.6c0,2.6-0.9,4.9-2.8,6.8
	s-4.1,2.9-6.8,2.8H-421c-2.6,0-4.9-0.9-6.8-2.8c-1.9-1.9-2.9-4.1-2.8-6.8V540c0-2.6,0.9-4.9,2.8-6.8c1.9-1.9,4.1-2.9,6.8-2.8h403.2
	c2.6,0,4.9,0.9,6.8,2.8C-9.1,535.1-8.2,537.4-8.2,540z M-469,194.4V252c0,2.6-0.9,4.9-2.8,6.8c-1.9,1.9-4.1,2.9-6.8,2.8h-57.6
	c-2.6,0-4.9-0.9-6.8-2.8c-1.9-1.9-2.9-4.1-2.8-6.8v-57.6c0-2.6,0.9-4.9,2.8-6.8c1.9-1.9,4.1-2.9,6.8-2.8h57.6c2.6,0,4.9,0.9,6.8,2.8
	C-469.9,189.5-469,191.8-469,194.4z M-8.2,424.8v57.6c0,2.6-0.9,4.9-2.8,6.8s-4.1,2.9-6.8,2.8H-421c-2.6,0-4.9-0.9-6.8-2.8
	c-1.9-1.9-2.9-4.1-2.8-6.8v-57.6c0-2.6,0.9-4.9,2.8-6.8c1.9-1.9,4.1-2.9,6.8-2.8h403.2c2.6,0,4.9,0.9,6.8,2.8
	C-9.1,419.9-8.2,422.2-8.2,424.8z M-8.2,309.6v57.6c0,2.6-0.9,4.9-2.8,6.8c-1.9,1.9-4.1,2.9-6.8,2.8H-421c-2.6,0-4.9-0.9-6.8-2.8
	c-1.9-1.9-2.9-4.1-2.8-6.8v-57.6c0-2.6,0.9-4.9,2.8-6.8c1.9-1.9,4.1-2.9,6.8-2.8h403.2c2.6,0,4.9,0.9,6.8,2.8
	C-9.1,304.7-8.2,307-8.2,309.6z M-8.2,194.4V252c0,2.6-0.9,4.9-2.8,6.8s-4.1,2.9-6.8,2.8H-421c-2.6,0-4.9-0.9-6.8-2.8
	c-1.9-1.9-2.9-4.1-2.8-6.8v-57.6c0-2.6,0.9-4.9,2.8-6.8c1.9-1.9,4.1-2.9,6.8-2.8h403.2c2.6,0,4.9,0.9,6.8,2.8
	C-9.1,189.5-8.2,191.8-8.2,194.4z"/>
</svg>
