<?xml version="1.0" encoding="utf-8"?>
<!-- Generator: Adobe Illustrator 19.0.1, SVG Export Plug-In . SVG Version: 6.00 Build 0)  -->
<svg version="1.1" id="Layer_1" xmlns="http://www.w3.org/2000/svg" xmlns:xlink="http://www.w3.org/1999/xlink" x="0px" y="0px"
	 width="600px" height="600px" viewBox="-5 97 600 600" enable-background="new -5 97 600 600" xml:space="preserve">
<g>
	<path fill="#444445" d="M487.2,339c-3.7,7.1-10.2,12.8-18.6,15.1c-16,4.4-32.5-4.9-36.9-20.9c-4.2-15,3.8-30.4,17.9-36l-45-49.9
		l-107.5,96.8c1.8,4.8,3.8,9.6,5.9,14.2l98.4-91l25.2,27.2c-2.5,3.1-6.3,8.8-8.3,16.8c-2,8.3-1.1,14.9-0.5,18.8
		c1.8,11.6,7,20.1,10.6,25.1c3.1,3.6,7.6,7.7,13.9,10.7c20.9,9.9,42.7-1.7,45.8-3.4c9.5,10.5,19,21,28.5,31.5L311.9,581.5
		l-30.1-31.6c0,0,20.3-29.5-0.7-58.5c-9.9-13.6-23.8-16.6-35.8-16.1c-0.1,0.2-0.2,0.4-0.3,0.7c-1.9,4.7-3.6,10.3-5.6,15.8
		c14.9-2.5,29.6,6.6,33.8,21.6c3.8,13.7-2.5,27.7-14.4,34.3l50.5,56l229.9-207L487.2,339z"/>
</g>
<desc  version="4.5" snapToGrid="yes" iVinci="yes" codePlatform="0" gridStep="20" showGrid="yes"></desc>
<desc  version="4.5" snapToGrid="no" iVinci="yes" codePlatform="0" gridStep="20" showGrid="no"></desc>
<path fill="#444445" d="M71.5,289.5"/>
<g>
	<path fill="#444445" d="M232.9,191.5l-69.5,34.6c5.9,5.5,9.6,13.3,9.6,21.9c0,16.6-13.4,30-30,30c-15.5,0-28.3-11.8-29.8-26.9
		L53,281l137.8,277l60.1-29.9c-4.3-5.2-6.8-11.8-6.8-19.1c0-16.6,13.4-30,30-30c14.2,0,26,9.8,29.2,23l67.5-33.6L232.9,191.5z
		 M255,465.5C221.5,478,229,521,229,521l-29.5,17.5l-128-249l33-17c2.3,3.2,6.8,8.4,14,12.5c7.4,4.2,14.1,5,18,5.5
		c11.7,1.4,21.3-1.3,27-3.5c4.3-2,9.4-5.3,14-10.5c15.2-17.5,9.8-41.6,9-45c12.7-6.3,25.3-12.7,38-19L350,460l-38.5,20.5
		C311.5,480.5,288.5,453,255,465.5z"/>
</g>
</svg>
