<?xml version="1.0" encoding="utf-8"?>
<!-- Generator: Adobe Illustrator 18.1.1, SVG Export Plug-In . SVG Version: 6.00 Build 0)  -->
<svg version="1.1" id="Layer_1" xmlns="http://www.w3.org/2000/svg" xmlns:xlink="http://www.w3.org/1999/xlink" x="0px" y="0px"
	 width="600px" height="600px" viewBox="-579 97 600 600" enable-background="new -579 97 600 600" xml:space="preserve">
<path fill="#444444" d="M-9.8,230.2c-15.3,22.3-33.7,41.3-55.3,57.1c0.2,3.2,0.3,8,0.3,14.3c0,29.6-4.3,59.2-13,88.7
	s-21.8,57.8-39.5,84.9c-17.7,27.1-38.7,51.1-63,71.9c-24.4,20.8-53.8,37.5-88.2,49.9s-71.2,18.6-110.4,18.6
	c-61.7,0-118.2-16.5-169.5-49.6c8,0.9,16.9,1.4,26.7,1.4c51.3,0,96.9-15.7,137-47.1c-23.9-0.5-45.3-7.8-64.2-22
	c-18.9-14.2-31.9-32.4-38.9-54.5c7.5,1.1,14.5,1.7,20.8,1.7c9.8,0,19.5-1.3,29-3.8c-25.5-5.2-46.6-17.9-63.4-38.1
	c-16.7-20.2-25.1-43.6-25.1-70.2v-1.4c15.5,8.7,32.1,13.3,49.9,14c-15-10-27-23.1-35.9-39.3c-8.9-16.2-13.3-33.7-13.3-52.6
	c0-20,5-38.6,15-55.7c27.6,33.9,61.1,61.1,100.6,81.5s81.8,31.7,126.9,34c-1.8-8.7-2.7-17.1-2.7-25.3c0-30.5,10.8-56.6,32.3-78.1
	s47.6-32.3,78.1-32.3c31.9,0,58.8,11.6,80.6,34.9c24.8-4.8,48.2-13.7,70-26.7c-8.4,26.2-24.6,46.5-48.5,60.8
	C-52.1,245.1-30.9,239.4-9.8,230.2L-9.8,230.2z"/>
</svg>
